<mxfile host="app.diagrams.net" modified="2020-11-10T22:42:36.507Z" agent="5.0 (Macintosh; Intel Mac OS X 10_15_7) AppleWebKit/537.36 (KHTML, like Gecko) Chrome/84.0.4147.135 Safari/537.36" etag="q-6vOlJHtYIEzAEXFBBU" version="13.9.3" type="github">
  <diagram id="C5RBs43oDa-KdzZeNtuy" name="Page-1">
    <mxGraphModel dx="2013" dy="797" grid="1" gridSize="10" guides="1" tooltips="1" connect="1" arrows="1" fold="1" page="1" pageScale="1" pageWidth="827" pageHeight="1169" math="0" shadow="0">
      <root>
        <mxCell id="WIyWlLk6GJQsqaUBKTNV-0" />
        <mxCell id="WIyWlLk6GJQsqaUBKTNV-1" parent="WIyWlLk6GJQsqaUBKTNV-0" />
        <mxCell id="d2mc20jg6NrcDCnekad9-0" value="G" style="rounded=0;whiteSpace=wrap;html=1;fillColor=#f5f5f5;strokeColor=#666666;fontColor=#333333;" vertex="1" parent="WIyWlLk6GJQsqaUBKTNV-1">
          <mxGeometry x="-10" y="10" width="1081" height="755" as="geometry" />
        </mxCell>
        <mxCell id="d2mc20jg6NrcDCnekad9-9" value="&lt;b&gt;&lt;font style=&quot;font-size: 24px&quot;&gt;COVID-19&amp;nbsp; TRACKER&lt;/font&gt;&lt;/b&gt;" style="text;html=1;strokeColor=none;fillColor=none;align=center;verticalAlign=middle;whiteSpace=wrap;rounded=0;" vertex="1" parent="WIyWlLk6GJQsqaUBKTNV-1">
          <mxGeometry x="110" y="30" width="260" height="60" as="geometry" />
        </mxCell>
        <mxCell id="d2mc20jg6NrcDCnekad9-12" value="&lt;font style=&quot;font-size: 17px&quot;&gt;Worldwide&lt;/font&gt;" style="rounded=1;whiteSpace=wrap;html=1;" vertex="1" parent="WIyWlLk6GJQsqaUBKTNV-1">
          <mxGeometry x="440" y="40" width="200" height="40" as="geometry" />
        </mxCell>
        <mxCell id="d2mc20jg6NrcDCnekad9-13" value="" style="rounded=1;whiteSpace=wrap;html=1;" vertex="1" parent="WIyWlLk6GJQsqaUBKTNV-1">
          <mxGeometry x="30" y="120" width="210" height="90" as="geometry" />
        </mxCell>
        <mxCell id="d2mc20jg6NrcDCnekad9-14" value="Coronavirus cases" style="text;html=1;strokeColor=none;fillColor=none;align=center;verticalAlign=middle;whiteSpace=wrap;rounded=0;" vertex="1" parent="WIyWlLk6GJQsqaUBKTNV-1">
          <mxGeometry x="20" y="130" width="200" height="20" as="geometry" />
        </mxCell>
        <mxCell id="d2mc20jg6NrcDCnekad9-15" value="+2000" style="text;html=1;strokeColor=none;fillColor=none;align=center;verticalAlign=middle;whiteSpace=wrap;rounded=0;" vertex="1" parent="WIyWlLk6GJQsqaUBKTNV-1">
          <mxGeometry x="20" y="150" width="210" height="20" as="geometry" />
        </mxCell>
        <mxCell id="d2mc20jg6NrcDCnekad9-16" value="1.2 M Total Case" style="text;html=1;strokeColor=none;fillColor=none;align=center;verticalAlign=middle;whiteSpace=wrap;rounded=0;" vertex="1" parent="WIyWlLk6GJQsqaUBKTNV-1">
          <mxGeometry x="29" y="175" width="190" height="25" as="geometry" />
        </mxCell>
        <mxCell id="d2mc20jg6NrcDCnekad9-18" value="" style="rounded=1;whiteSpace=wrap;html=1;" vertex="1" parent="WIyWlLk6GJQsqaUBKTNV-1">
          <mxGeometry x="260" y="120" width="180" height="90" as="geometry" />
        </mxCell>
        <mxCell id="d2mc20jg6NrcDCnekad9-19" value="Recovered" style="text;html=1;strokeColor=none;fillColor=none;align=center;verticalAlign=middle;whiteSpace=wrap;rounded=0;" vertex="1" parent="WIyWlLk6GJQsqaUBKTNV-1">
          <mxGeometry x="252.5" y="130" width="165" height="20" as="geometry" />
        </mxCell>
        <mxCell id="d2mc20jg6NrcDCnekad9-20" value="+2000" style="text;html=1;strokeColor=none;fillColor=none;align=center;verticalAlign=middle;whiteSpace=wrap;rounded=0;" vertex="1" parent="WIyWlLk6GJQsqaUBKTNV-1">
          <mxGeometry x="220" y="150" width="210" height="25" as="geometry" />
        </mxCell>
        <mxCell id="d2mc20jg6NrcDCnekad9-21" value="1.2 M Total Case" style="text;html=1;strokeColor=none;fillColor=none;align=center;verticalAlign=middle;whiteSpace=wrap;rounded=0;" vertex="1" parent="WIyWlLk6GJQsqaUBKTNV-1">
          <mxGeometry x="240" y="175" width="190" height="25" as="geometry" />
        </mxCell>
        <mxCell id="d2mc20jg6NrcDCnekad9-23" value="" style="rounded=1;whiteSpace=wrap;html=1;direction=west;" vertex="1" parent="WIyWlLk6GJQsqaUBKTNV-1">
          <mxGeometry x="450" y="117.5" width="200" height="90" as="geometry" />
        </mxCell>
        <mxCell id="d2mc20jg6NrcDCnekad9-24" value="Death toll" style="text;html=1;strokeColor=none;fillColor=none;align=center;verticalAlign=middle;whiteSpace=wrap;rounded=0;" vertex="1" parent="WIyWlLk6GJQsqaUBKTNV-1">
          <mxGeometry x="450.5" y="130" width="200" height="20" as="geometry" />
        </mxCell>
        <mxCell id="d2mc20jg6NrcDCnekad9-25" value="+2000" style="text;html=1;strokeColor=none;fillColor=none;align=center;verticalAlign=middle;whiteSpace=wrap;rounded=0;" vertex="1" parent="WIyWlLk6GJQsqaUBKTNV-1">
          <mxGeometry x="450.5" y="150" width="210" height="25" as="geometry" />
        </mxCell>
        <mxCell id="d2mc20jg6NrcDCnekad9-26" value="1.2 M Total Case" style="text;html=1;strokeColor=none;fillColor=none;align=center;verticalAlign=middle;whiteSpace=wrap;rounded=0;" vertex="1" parent="WIyWlLk6GJQsqaUBKTNV-1">
          <mxGeometry x="460.5" y="175" width="190" height="25" as="geometry" />
        </mxCell>
        <mxCell id="d2mc20jg6NrcDCnekad9-27" value="" style="rounded=1;whiteSpace=wrap;html=1;" vertex="1" parent="WIyWlLk6GJQsqaUBKTNV-1">
          <mxGeometry x="29" y="230" width="641" height="510" as="geometry" />
        </mxCell>
        <mxCell id="d2mc20jg6NrcDCnekad9-31" value="" style="verticalLabelPosition=bottom;verticalAlign=top;html=1;shadow=0;dashed=0;strokeWidth=1;shape=mxgraph.ios.iBgMap;strokeColor=#18211b;strokeColor2=#008cff;fillColor2=#96D1FF;" vertex="1" parent="WIyWlLk6GJQsqaUBKTNV-1">
          <mxGeometry x="79.5" y="300" width="540" height="395" as="geometry" />
        </mxCell>
        <mxCell id="d2mc20jg6NrcDCnekad9-32" value="" style="shape=image;html=1;verticalAlign=top;verticalLabelPosition=bottom;labelBackgroundColor=#ffffff;imageAspect=0;aspect=fixed;image=https://cdn2.iconfinder.com/data/icons/round-varieties/60/Rounded_-_High_Ultra_Colour02_-_Maps-128.png" vertex="1" parent="WIyWlLk6GJQsqaUBKTNV-1">
          <mxGeometry x="293.5" y="480" width="48" height="48" as="geometry" />
        </mxCell>
        <mxCell id="d2mc20jg6NrcDCnekad9-33" value="" style="shape=image;html=1;verticalAlign=top;verticalLabelPosition=bottom;labelBackgroundColor=#ffffff;imageAspect=0;aspect=fixed;image=https://cdn0.iconfinder.com/data/icons/small-n-flat/24/678111-map-marker-128.png" vertex="1" parent="WIyWlLk6GJQsqaUBKTNV-1">
          <mxGeometry x="370" y="373.5" width="28" height="28" as="geometry" />
        </mxCell>
        <mxCell id="d2mc20jg6NrcDCnekad9-36" value="&lt;font style=&quot;font-size: 23px&quot;&gt;Map&lt;/font&gt;" style="text;html=1;strokeColor=none;fillColor=none;align=center;verticalAlign=middle;whiteSpace=wrap;rounded=0;" vertex="1" parent="WIyWlLk6GJQsqaUBKTNV-1">
          <mxGeometry x="315" y="250" width="40" height="20" as="geometry" />
        </mxCell>
        <mxCell id="d2mc20jg6NrcDCnekad9-42" value="" style="rounded=1;whiteSpace=wrap;html=1;" vertex="1" parent="WIyWlLk6GJQsqaUBKTNV-1">
          <mxGeometry x="700" y="20" width="340" height="710" as="geometry" />
        </mxCell>
        <mxCell id="d2mc20jg6NrcDCnekad9-44" value="&lt;font style=&quot;font-size: 18px&quot;&gt;Cases By Country&lt;/font&gt;" style="text;html=1;strokeColor=none;fillColor=none;align=center;verticalAlign=middle;whiteSpace=wrap;rounded=0;" vertex="1" parent="WIyWlLk6GJQsqaUBKTNV-1">
          <mxGeometry x="730" y="60" width="150" height="20" as="geometry" />
        </mxCell>
        <mxCell id="d2mc20jg6NrcDCnekad9-46" value="&lt;font style=&quot;font-size: 17px&quot;&gt;Worldwide New Cases&lt;/font&gt;" style="text;html=1;strokeColor=none;fillColor=none;align=center;verticalAlign=middle;whiteSpace=wrap;rounded=0;" vertex="1" parent="WIyWlLk6GJQsqaUBKTNV-1">
          <mxGeometry x="730" y="350" width="180" height="37.5" as="geometry" />
        </mxCell>
        <mxCell id="d2mc20jg6NrcDCnekad9-47" value="Label" style="verticalLabelPosition=bottom;verticalAlign=top;html=1;shape=mxgraph.infographic.shadedCube;isoAngle=15;fillColor=#10739E;strokeColor=none;fontStyle=1;fontColor=#10739E;fontSize=12;shadow=0;" vertex="1" parent="WIyWlLk6GJQsqaUBKTNV-1">
          <mxGeometry x="750" y="590" width="40" height="80" as="geometry" />
        </mxCell>
        <mxCell id="d2mc20jg6NrcDCnekad9-48" value="Label" style="verticalLabelPosition=bottom;verticalAlign=top;html=1;shape=mxgraph.infographic.shadedCube;isoAngle=15;fillColor=#F2931E;strokeColor=none;fontStyle=1;fontColor=#F2931E;fontSize=12;shadow=0;" vertex="1" parent="WIyWlLk6GJQsqaUBKTNV-1">
          <mxGeometry x="800" y="570" width="40" height="100" as="geometry" />
        </mxCell>
        <mxCell id="d2mc20jg6NrcDCnekad9-49" value="Label" style="verticalLabelPosition=bottom;verticalAlign=top;html=1;shape=mxgraph.infographic.shadedCube;isoAngle=15;fillColor=#AE4132;strokeColor=none;fontStyle=1;fontColor=#AE4132;fontSize=12;shadow=0;" vertex="1" parent="WIyWlLk6GJQsqaUBKTNV-1">
          <mxGeometry x="850" y="510" width="40" height="160" as="geometry" />
        </mxCell>
        <mxCell id="d2mc20jg6NrcDCnekad9-50" value="Label" style="verticalLabelPosition=bottom;verticalAlign=top;html=1;shape=mxgraph.infographic.shadedCube;isoAngle=15;fillColor=#23445D;strokeColor=none;fontStyle=1;fontColor=#23445D;fontSize=12;shadow=0;" vertex="1" parent="WIyWlLk6GJQsqaUBKTNV-1">
          <mxGeometry x="900" y="410" width="40" height="260" as="geometry" />
        </mxCell>
        <mxCell id="d2mc20jg6NrcDCnekad9-51" value="Label" style="verticalLabelPosition=bottom;verticalAlign=top;html=1;shape=mxgraph.infographic.shadedCube;isoAngle=15;fillColor=#12AAB5;strokeColor=none;fontStyle=1;fontColor=#12AAB5;fontSize=12;shadow=0;" vertex="1" parent="WIyWlLk6GJQsqaUBKTNV-1">
          <mxGeometry x="950" y="450" width="40" height="220" as="geometry" />
        </mxCell>
        <mxCell id="d2mc20jg6NrcDCnekad9-53" value="Cross-Functional Flowchart" style="shape=table;childLayout=tableLayout;rowLines=0;columnLines=0;startSize=40;html=1;whiteSpace=wrap;collapsible=0;recursiveResize=0;expand=0;pointerEvents=0;fontStyle=1;align=center;" vertex="1" parent="WIyWlLk6GJQsqaUBKTNV-1">
          <mxGeometry x="730" y="90" width="280" height="251.5" as="geometry" />
        </mxCell>
        <mxCell id="d2mc20jg6NrcDCnekad9-54" value="Actor 1" style="swimlane;horizontal=0;points=[[0,0.5],[1,0.5]];portConstraint=eastwest;startSize=40;html=1;whiteSpace=wrap;collapsible=0;recursiveResize=0;expand=0;pointerEvents=0;fontStyle=1" vertex="1" parent="d2mc20jg6NrcDCnekad9-53">
          <mxGeometry y="40" width="280" height="71" as="geometry" />
        </mxCell>
        <mxCell id="d2mc20jg6NrcDCnekad9-55" value="Phase 1" style="swimlane;connectable=0;startSize=40;html=1;whiteSpace=wrap;collapsible=0;recursiveResize=0;expand=0;pointerEvents=0;" vertex="1" parent="d2mc20jg6NrcDCnekad9-54">
          <mxGeometry x="40" width="70" height="71" as="geometry" />
        </mxCell>
        <mxCell id="d2mc20jg6NrcDCnekad9-56" value="Phase 2" style="swimlane;connectable=0;startSize=40;html=1;whiteSpace=wrap;collapsible=0;recursiveResize=0;expand=0;pointerEvents=0;" vertex="1" parent="d2mc20jg6NrcDCnekad9-54">
          <mxGeometry x="110" width="90" height="71" as="geometry" />
        </mxCell>
        <mxCell id="d2mc20jg6NrcDCnekad9-57" value="Phase 3" style="swimlane;connectable=0;startSize=40;html=1;whiteSpace=wrap;collapsible=0;recursiveResize=0;expand=0;pointerEvents=0;" vertex="1" parent="d2mc20jg6NrcDCnekad9-54">
          <mxGeometry x="200" width="80" height="71" as="geometry" />
        </mxCell>
        <mxCell id="d2mc20jg6NrcDCnekad9-58" value="Actor 2" style="swimlane;horizontal=0;points=[[0,0.5],[1,0.5]];portConstraint=eastwest;startSize=40;html=1;whiteSpace=wrap;collapsible=0;recursiveResize=0;expand=0;pointerEvents=0;" vertex="1" parent="d2mc20jg6NrcDCnekad9-53">
          <mxGeometry y="111" width="280" height="70" as="geometry" />
        </mxCell>
        <mxCell id="d2mc20jg6NrcDCnekad9-59" value="" style="swimlane;connectable=0;startSize=0;html=1;whiteSpace=wrap;collapsible=0;recursiveResize=0;expand=0;pointerEvents=0;" vertex="1" parent="d2mc20jg6NrcDCnekad9-58">
          <mxGeometry x="40" width="70" height="70" as="geometry" />
        </mxCell>
        <mxCell id="d2mc20jg6NrcDCnekad9-60" value="" style="swimlane;connectable=0;startSize=0;html=1;whiteSpace=wrap;collapsible=0;recursiveResize=0;expand=0;pointerEvents=0;" vertex="1" parent="d2mc20jg6NrcDCnekad9-58">
          <mxGeometry x="110" width="90" height="70" as="geometry" />
        </mxCell>
        <mxCell id="d2mc20jg6NrcDCnekad9-61" value="" style="swimlane;connectable=0;startSize=0;html=1;whiteSpace=wrap;collapsible=0;recursiveResize=0;expand=0;pointerEvents=0;" vertex="1" parent="d2mc20jg6NrcDCnekad9-58">
          <mxGeometry x="200" width="80" height="70" as="geometry" />
        </mxCell>
        <mxCell id="d2mc20jg6NrcDCnekad9-62" value="Actor 3" style="swimlane;horizontal=0;points=[[0,0.5],[1,0.5]];portConstraint=eastwest;startSize=40;html=1;whiteSpace=wrap;collapsible=0;recursiveResize=0;expand=0;pointerEvents=0;" vertex="1" parent="d2mc20jg6NrcDCnekad9-53">
          <mxGeometry y="181" width="280" height="71" as="geometry" />
        </mxCell>
        <mxCell id="d2mc20jg6NrcDCnekad9-63" value="" style="swimlane;connectable=0;startSize=0;html=1;whiteSpace=wrap;collapsible=0;recursiveResize=0;expand=0;pointerEvents=0;" vertex="1" parent="d2mc20jg6NrcDCnekad9-62">
          <mxGeometry x="40" width="70" height="71" as="geometry" />
        </mxCell>
        <mxCell id="d2mc20jg6NrcDCnekad9-64" value="" style="swimlane;connectable=0;startSize=0;html=1;whiteSpace=wrap;collapsible=0;recursiveResize=0;expand=0;pointerEvents=0;" vertex="1" parent="d2mc20jg6NrcDCnekad9-62">
          <mxGeometry x="110" width="90" height="71" as="geometry" />
        </mxCell>
        <mxCell id="d2mc20jg6NrcDCnekad9-65" value="" style="swimlane;connectable=0;startSize=0;html=1;whiteSpace=wrap;collapsible=0;recursiveResize=0;expand=0;pointerEvents=0;" vertex="1" parent="d2mc20jg6NrcDCnekad9-62">
          <mxGeometry x="200" width="80" height="71" as="geometry" />
        </mxCell>
      </root>
    </mxGraphModel>
  </diagram>
</mxfile>
